<?xml version="1.0" encoding="UTF-8"?><svg xmlns="http://www.w3.org/2000/svg" xmlns:xlink="http://www.w3.org/1999/xlink" viewBox="0 0 152.47 347.23"><defs><style>.e{fill:none;}.f{fill:#f6bc64;}.g{fill:#fff;}.h{fill:#231815;}.i{fill:#be2720;fill-rule:evenodd;}.j{clip-path:url(#d);}</style><clipPath id="d"><circle class="e" cx="71.52" cy="175.06" r="26.73" transform="translate(-108.71 232.31) rotate(-85.4)"/></clipPath></defs><g id="a"/><g id="b"><g id="c"><rect class="h" width="152.47" height="347.23"/><g class="j"><circle class="f" cx="71.52" cy="174.47" r="26.73" transform="translate(-106.51 236.64) rotate(-86.96)"/><g><g><path class="i" d="M73.84,174.47c0,1.28-1.04,2.33-2.33,2.33s-2.32-1.04-2.32-2.33,1.04-2.33,2.32-2.33,2.33,1.04,2.33,2.33Z"/><polygon class="i" points="69.32 146.57 71.52 174.47 73.71 146.57 69.32 146.57"/><polygon class="i" points="59.91 149.01 71.52 174.47 64.04 147.51 59.91 149.01"/><polygon class="i" points="51.9 154.51 71.52 174.47 55.26 151.69 51.9 154.51"/><polygon class="i" points="46.25 162.43 71.52 174.47 48.45 158.62 46.25 162.43"/><polygon class="i" points="43.66 171.79 71.52 174.47 44.42 167.47 43.66 171.79"/><polygon class="i" points="44.42 181.48 71.52 174.47 43.66 177.16 44.42 181.48"/><polygon class="i" points="48.45 190.33 71.52 174.47 46.25 186.52 48.45 190.33"/><polygon class="i" points="55.26 197.26 71.52 174.47 51.9 194.44 55.26 197.26"/><polygon class="i" points="64.04 201.44 71.52 174.47 59.91 199.94 64.04 201.44"/><polygon class="i" points="73.71 202.38 71.52 174.47 69.32 202.38 73.71 202.38"/><polygon class="i" points="83.12 199.94 71.52 174.47 79 201.44 83.12 199.94"/><polygon class="i" points="91.13 194.44 71.52 174.47 87.77 197.26 91.13 194.44"/><polygon class="i" points="96.78 186.52 71.52 174.47 94.58 190.33 96.78 186.52"/><polygon class="i" points="99.37 177.16 71.52 174.47 98.61 181.48 99.37 177.16"/><polygon class="i" points="98.61 167.47 71.52 174.47 99.37 171.79 98.61 167.47"/><polygon class="i" points="94.58 158.62 71.52 174.47 96.78 162.43 94.58 158.62"/><polygon class="i" points="87.77 151.69 71.52 174.47 91.13 154.51 87.77 151.69"/><polygon class="i" points="79 147.51 71.52 174.47 83.12 149.01 79 147.51"/></g><path class="i" d="M81.36,174.47c0,5.44-4.41,9.85-9.85,9.85s-9.85-4.41-9.85-9.85,4.41-9.85,9.85-9.85,9.85,4.41,9.85,9.85Z"/></g></g><g><path class="g" d="M79.07,60.93c-4.34,3.63-8.77,4.34-13.3,2.11s-6.91-5.29-7.15-9.2,.98-7.69,3.63-11.37c.82-1.21,1.89-1.37,3.22-.47,1.05,.78,1.17,1.76,.35,2.93-1.99,2.77-2.99,5.49-2.99,8.14s1.48,4.71,4.45,6.15c2.97,1.44,5.9,.87,8.79-1.73s3.69-5.52,2.4-8.76c-1.84-4.65-4.43-7.62-7.79-8.91s-6.41-2.91-9.14-4.86c-2.73-1.95-3.89-5-3.46-9.14,.43-4.14,1.82-7.21,4.16-9.2s5.39-2.99,9.14-2.99,6.62,1.74,8.61,5.21c1.99,3.48,2.7,7.27,2.11,11.37-.16,1.41-.88,2.11-2.17,2.11-1.56-.12-2.29-.82-2.17-2.11,.27-3.44-.32-6.34-1.79-8.7-1.46-2.36-3.31-3.47-5.54-3.31-2.23,.16-3.96,.95-5.19,2.37-1.23,1.43-2.05,2.95-2.46,4.57-.41,1.62-.25,3.25,.47,4.89s3.56,3.52,8.53,5.62,8.54,5.84,10.72,11.19c2.03,5.74,.88,10.43-3.46,14.06Z"/><path class="g" d="M86.46,82.34c-.04,1.52-.76,2.29-2.17,2.29h-.82l-9.38,17.87v23.61h.59c1.48,0,2.25,.76,2.29,2.29,0,1.48-.72,2.23-2.17,2.23h-5.86c-1.33,0-2.05-.76-2.17-2.29,.12-1.48,.86-2.23,2.23-2.23h.64v-23.67l-9.9-17.81h-.94c-1.41,0-2.13-.76-2.17-2.29,.04-1.44,.78-2.17,2.23-2.17h5.74c1.48,0,2.23,.72,2.23,2.17-.04,1.52-.68,2.29-1.93,2.29l6.91,12.71,6.62-12.71c-1.25,0-1.89-.74-1.93-2.23,0-1.48,.76-2.23,2.29-2.23h5.45c1.45,0,2.19,.72,2.23,2.17Z"/><path class="g" d="M85.05,222.15l-4.8,44.18c-.23,1.29-.78,1.97-1.64,2.05-.86,.08-1.51-.02-1.96-.29-.45-.27-.73-.8-.85-1.58l-4.39-27.48-3.93,27.19c-.2,.94-.54,1.57-1.03,1.9-.49,.33-1.1,.37-1.85,.12-.74-.25-1.21-.93-1.41-2.02l-4.98-44.3c-1.02,0-1.54-.74-1.58-2.23,.16-1.48,.9-2.23,2.23-2.23h2.87c1.37,0,2.11,.74,2.23,2.23-.04,1.49-.47,2.23-1.29,2.23l3.05,29.53,3.46-25.84c.2-1.25,.89-1.9,2.08-1.96s1.98,.58,2.37,1.9l4.04,27.01,2.93-30.41c-.66,0-1.09-.74-1.29-2.23,.2-1.48,.94-2.23,2.23-2.23h2.7c1.48,0,2.23,.74,2.23,2.23s-.47,2.23-1.41,2.23Z"/><path class="g" d="M85.87,332.25c.04,1.52-.68,2.29-2.17,2.29h-6.5c-1.33,0-2.05-.74-2.17-2.23,.04-1.49,.78-2.23,2.23-2.23h.7c-1.95-10.51-3.85-21.25-5.68-32.23-.98,4.73-2.4,11.43-4.28,20.1h3.98c1.48,0,2.25,.74,2.29,2.23,0,1.49-.72,2.23-2.17,2.23h-5.21c-.16,.7-.74,3.18-1.76,7.44,1.41,0,2.15,.78,2.23,2.34,0,1.44-.72,2.17-2.17,2.17h-5.86c-1.37,0-2.09-.74-2.17-2.23-.04-1.52,.7-2.29,2.23-2.29h.94c3.59-14.41,6.86-28.87,9.79-43.36,.27-1.52,1.1-2.29,2.49-2.29s2.14,.62,2.26,1.88c2.38,14.96,4.98,29.63,7.79,44h1c1.48,0,2.23,.72,2.23,2.17Z"/></g></g></g></svg>