<?xml version="1.0" encoding="UTF-8"?><svg xmlns="http://www.w3.org/2000/svg" xmlns:xlink="http://www.w3.org/1999/xlink" viewBox="0 0 152.47 347.23"><defs><style>.e{fill:none;}.f{fill:#f6bc64;}.g{fill:#fff;}.h{fill:#855339;}.i{fill:#be2720;fill-rule:evenodd;}.j{clip-path:url(#d);}</style><clipPath id="d"><circle class="e" cx="76.24" cy="174.58" r="26.73" transform="translate(-103.89 236.57) rotate(-85.4)"/></clipPath></defs><g id="a"/><g id="b"><g id="c"><rect class="g" width="152.47" height="347.23"/><g><g><path class="h" d="M83.76,60.45c-4.34,3.63-8.77,4.34-13.3,2.11-4.53-2.23-6.91-5.29-7.15-9.2s.98-7.69,3.63-11.37c.82-1.21,1.89-1.37,3.22-.47,1.05,.78,1.17,1.76,.35,2.93-1.99,2.77-2.99,5.49-2.99,8.14s1.48,4.71,4.45,6.15c2.97,1.44,5.9,.87,8.79-1.73,2.89-2.6,3.69-5.52,2.4-8.76-1.84-4.65-4.43-7.62-7.79-8.91-3.36-1.29-6.41-2.91-9.14-4.86-2.73-1.95-3.89-5-3.46-9.14,.43-4.14,1.82-7.21,4.16-9.2s5.39-2.99,9.14-2.99,6.62,1.74,8.61,5.21c1.99,3.48,2.7,7.27,2.11,11.37-.16,1.41-.88,2.11-2.17,2.11-1.56-.12-2.29-.82-2.17-2.11,.27-3.44-.32-6.34-1.79-8.7-1.46-2.36-3.31-3.47-5.54-3.31-2.23,.16-3.96,.95-5.19,2.37-1.23,1.43-2.05,2.95-2.46,4.57-.41,1.62-.25,3.25,.47,4.89,.72,1.64,3.56,3.52,8.53,5.62,4.96,2.11,8.53,5.84,10.72,11.19,2.03,5.74,.88,10.43-3.46,14.06Z"/><path class="h" d="M91.15,81.86c-.04,1.52-.76,2.29-2.17,2.29h-.82l-9.38,17.87v23.61h.59c1.48,0,2.25,.76,2.29,2.29,0,1.48-.72,2.23-2.17,2.23h-5.86c-1.33,0-2.05-.76-2.17-2.29,.12-1.48,.86-2.23,2.23-2.23h.64v-23.67l-9.9-17.81h-.94c-1.41,0-2.13-.76-2.17-2.29,.04-1.44,.78-2.17,2.23-2.17h5.74c1.48,0,2.23,.72,2.23,2.17-.04,1.52-.68,2.29-1.93,2.29l6.91,12.71,6.62-12.71c-1.25,0-1.9-.74-1.93-2.23,0-1.48,.76-2.23,2.29-2.23h5.45c1.44,0,2.19,.72,2.23,2.17Z"/><path class="h" d="M89.74,221.68l-4.8,44.18c-.23,1.29-.78,1.97-1.64,2.05-.86,.08-1.51-.02-1.96-.29-.45-.27-.73-.8-.85-1.58l-4.39-27.48-3.93,27.19c-.2,.94-.54,1.57-1.03,1.9-.49,.33-1.1,.37-1.85,.12-.74-.25-1.21-.93-1.41-2.02l-4.98-44.3c-1.02,0-1.54-.74-1.58-2.23,.16-1.48,.9-2.23,2.23-2.23h2.87c1.37,0,2.11,.74,2.23,2.23-.04,1.49-.47,2.23-1.29,2.23l3.05,29.53,3.46-25.84c.19-1.25,.89-1.9,2.08-1.96,1.19-.06,1.98,.58,2.37,1.9l4.04,27.01,2.93-30.41c-.66,0-1.09-.74-1.29-2.23,.19-1.48,.94-2.23,2.23-2.23h2.7c1.48,0,2.23,.74,2.23,2.23s-.47,2.23-1.41,2.23Z"/><path class="h" d="M90.56,331.78c.04,1.52-.68,2.29-2.17,2.29h-6.5c-1.33,0-2.05-.74-2.17-2.23,.04-1.49,.78-2.23,2.23-2.23h.7c-1.95-10.51-3.85-21.25-5.68-32.23-.98,4.73-2.4,11.43-4.28,20.1h3.98c1.48,0,2.25,.74,2.29,2.23,0,1.49-.72,2.23-2.17,2.23h-5.21c-.16,.7-.74,3.18-1.76,7.44,1.41,0,2.15,.78,2.23,2.34,0,1.44-.72,2.17-2.17,2.17h-5.86c-1.37,0-2.09-.74-2.17-2.23-.04-1.52,.7-2.29,2.23-2.29h.94c3.59-14.41,6.86-28.87,9.79-43.36,.27-1.52,1.1-2.29,2.49-2.29s2.14,.62,2.26,1.88c2.38,14.96,4.98,29.63,7.79,44h1c1.48,0,2.23,.72,2.23,2.17Z"/></g><g class="j"><circle class="f" cx="76.24" cy="174" r="26.73" transform="translate(-101.56 240.9) rotate(-86.96)"/><g><g><path class="i" d="M78.56,174c0,1.28-1.04,2.33-2.33,2.33s-2.32-1.04-2.32-2.33,1.04-2.33,2.32-2.33,2.33,1.04,2.33,2.33Z"/><polygon class="i" points="74.04 146.1 76.24 174 78.43 146.1 74.04 146.1"/><polygon class="i" points="64.63 148.53 76.24 174 68.76 147.03 64.63 148.53"/><polygon class="i" points="56.62 154.04 76.24 174 59.98 151.21 56.62 154.04"/><polygon class="i" points="50.97 161.95 76.24 174 53.17 158.15 50.97 161.95"/><polygon class="i" points="48.38 171.32 76.24 174 49.14 166.99 48.38 171.32"/><polygon class="i" points="49.14 181.01 76.24 174 48.38 176.68 49.14 181.01"/><polygon class="i" points="53.17 189.85 76.24 174 50.97 186.05 53.17 189.85"/><polygon class="i" points="59.98 196.78 76.24 174 56.62 193.96 59.98 196.78"/><polygon class="i" points="68.76 200.97 76.24 174 64.63 199.47 68.76 200.97"/><polygon class="i" points="78.43 201.9 76.24 174 74.04 201.9 78.43 201.9"/><polygon class="i" points="87.84 199.47 76.24 174 83.71 200.97 87.84 199.47"/><polygon class="i" points="95.85 193.96 76.24 174 92.49 196.78 95.85 193.96"/><polygon class="i" points="101.5 186.05 76.24 174 99.3 189.85 101.5 186.05"/><polygon class="i" points="104.09 176.68 76.24 174 103.33 181.01 104.09 176.68"/><polygon class="i" points="103.33 166.99 76.24 174 104.09 171.32 103.33 166.99"/><polygon class="i" points="99.3 158.15 76.24 174 101.5 161.95 99.3 158.15"/><polygon class="i" points="92.49 151.21 76.24 174 95.85 154.04 92.49 151.21"/><polygon class="i" points="83.71 147.03 76.24 174 87.84 148.53 83.71 147.03"/></g><path class="i" d="M86.08,174c0,5.44-4.41,9.85-9.85,9.85s-9.85-4.41-9.85-9.85,4.41-9.85,9.85-9.85,9.85,4.41,9.85,9.85Z"/></g></g></g></g></g></svg>