<?xml version="1.0" encoding="utf-8"?>
<!-- Generator: Adobe Illustrator 26.4.1, SVG Export Plug-In . SVG Version: 6.00 Build 0)  -->
<svg version="1.1" id="レイヤー_1" xmlns="http://www.w3.org/2000/svg" xmlns:xlink="http://www.w3.org/1999/xlink" x="0px"
	 y="0px" viewBox="0 0 53.5 53.5" style="enable-background:new 0 0 53.5 53.5;" xml:space="preserve">
<style type="text/css">
	.st0{opacity:0.75;}
	.st1{clip-path:url(#SVGID_00000003797076953187304170000013590165898489828283_);}
	.st2{fill:#F6BC64;}
	.st3{fill-rule:evenodd;clip-rule:evenodd;fill:#BE2720;}
</style>
<g id="a" class="st0">
</g>
<g id="b">
	<g id="c">
		<g>
			<defs>
				<circle id="SVGID_1_" cx="26.7" cy="26.7" r="26.7"/>
			</defs>
			<clipPath id="SVGID_00000043434977311626051550000002653786439685908633_">
				<use xlink:href="#SVGID_1_"  style="overflow:visible;"/>
			</clipPath>
			<g style="clip-path:url(#SVGID_00000043434977311626051550000002653786439685908633_);">
				<circle class="st2" cx="26.7" cy="26.1" r="26.7"/>
				<g>
					<g>
						<path class="st3" d="M29,26.1c0,1.3-1,2.3-2.3,2.3s-2.3-1-2.3-2.3s1-2.3,2.3-2.3S29,24.9,29,26.1z"/>
						<polygon class="st3" points="24.5,-1.8 26.7,26.1 28.9,-1.8 						"/>
						<polygon class="st3" points="15.1,0.7 26.7,26.1 19.2,-0.8 						"/>
						<polygon class="st3" points="7.1,6.2 26.7,26.1 10.5,3.4 						"/>
						<polygon class="st3" points="1.5,14.1 26.7,26.1 3.7,10.3 						"/>
						<polygon class="st3" points="-1.1,23.5 26.7,26.1 -0.4,19.1 						"/>
						<polygon class="st3" points="-0.4,33.2 26.7,26.1 -1.1,28.8 						"/>
						<polygon class="st3" points="3.7,42 26.7,26.1 1.5,38.2 						"/>
						<polygon class="st3" points="10.5,48.9 26.7,26.1 7.1,46.1 						"/>
						<polygon class="st3" points="19.2,53.1 26.7,26.1 15.1,51.6 						"/>
						<polygon class="st3" points="28.9,54 26.7,26.1 24.5,54 						"/>
						<polygon class="st3" points="38.3,51.6 26.7,26.1 34.2,53.1 						"/>
						<polygon class="st3" points="46.3,46.1 26.7,26.1 43,48.9 						"/>
						<polygon class="st3" points="52,38.2 26.7,26.1 49.8,42 						"/>
						<polygon class="st3" points="54.6,28.8 26.7,26.1 53.8,33.2 						"/>
						<polygon class="st3" points="53.8,19.1 26.7,26.1 54.6,23.5 						"/>
						<polygon class="st3" points="49.8,10.3 26.7,26.1 52,14.1 						"/>
						<polygon class="st3" points="43,3.4 26.7,26.1 46.3,6.2 						"/>
						<polygon class="st3" points="34.2,-0.8 26.7,26.1 38.3,0.7 						"/>
					</g>
					<path class="st3" d="M36.6,26.1c0,5.4-4.4,9.9-9.9,9.9s-9.9-4.4-9.9-9.9s4.4-9.9,9.9-9.9S36.6,20.7,36.6,26.1z"/>
				</g>
			</g>
		</g>
	</g>
</g>
</svg>
