<?xml version="1.0" encoding="UTF-8"?><svg xmlns="http://www.w3.org/2000/svg" xmlns:xlink="http://www.w3.org/1999/xlink" viewBox="0 0 53.46 53.46"><defs><style>.e{fill:none;}.f{fill:#f6bc64;}.g{fill:#be2720;fill-rule:evenodd;}.h{clip-path:url(#d);}</style><clipPath id="d"><circle class="e" cx="26.73" cy="26.73" r="26.73" transform="translate(-2.06 51.23) rotate(-85.4)"/></clipPath></defs><g id="a"/><g id="b"><g id="c"><g class="h"><circle class="f" cx="26.73" cy="26.15" r="26.73" transform="translate(-.8 51.45) rotate(-86.96)"/><g><g><path class="g" d="M29.05,26.15c0,1.28-1.04,2.33-2.33,2.33s-2.32-1.04-2.32-2.33,1.04-2.33,2.32-2.33,2.33,1.04,2.33,2.33Z"/><polygon class="g" points="24.53 -1.75 26.73 26.15 28.93 -1.75 24.53 -1.75"/><polygon class="g" points="15.12 .68 26.73 26.15 19.25 -.82 15.12 .68"/><polygon class="g" points="7.11 6.19 26.73 26.15 10.48 3.36 7.11 6.19"/><polygon class="g" points="1.47 14.1 26.73 26.15 3.66 10.3 1.47 14.1"/><polygon class="g" points="-1.13 23.47 26.73 26.15 -.37 19.14 -1.13 23.47"/><polygon class="g" points="-.37 33.16 26.73 26.15 -1.13 28.83 -.37 33.16"/><polygon class="g" points="3.66 42 26.73 26.15 1.47 38.2 3.66 42"/><polygon class="g" points="10.48 48.93 26.73 26.15 7.11 46.11 10.48 48.93"/><polygon class="g" points="19.25 53.12 26.73 26.15 15.12 51.62 19.25 53.12"/><polygon class="g" points="28.93 54.05 26.73 26.15 24.53 54.05 28.93 54.05"/><polygon class="g" points="38.34 51.62 26.73 26.15 34.21 53.12 38.34 51.62"/><polygon class="g" points="46.35 46.11 26.73 26.15 42.98 48.93 46.35 46.11"/><polygon class="g" points="51.99 38.2 26.73 26.15 49.79 42 51.99 38.2"/><polygon class="g" points="54.59 28.83 26.73 26.15 53.83 33.16 54.59 28.83"/><polygon class="g" points="53.83 19.14 26.73 26.15 54.59 23.47 53.83 19.14"/><polygon class="g" points="49.79 10.3 26.73 26.15 51.99 14.1 49.79 10.3"/><polygon class="g" points="42.98 3.36 26.73 26.15 46.35 6.19 42.98 3.36"/><polygon class="g" points="34.21 -.82 26.73 26.15 38.34 .68 34.21 -.82"/></g><path class="g" d="M36.57,26.15c0,5.44-4.41,9.85-9.85,9.85s-9.85-4.41-9.85-9.85,4.41-9.85,9.85-9.85,9.85,4.41,9.85,9.85Z"/></g></g></g></g></svg>