<svg xmlns="http://www.w3.org/2000/svg" xmlns:xlink="http://www.w3.org/1999/xlink" width="137.571" height="136.889" viewBox="0 0 137.571 136.889">
  <defs>
    <clipPath id="clip-path">
      <rect id="長方形_11" data-name="長方形 11" width="63.21" height="67.412" transform="translate(0 0)" fill="#c39830"/>
    </clipPath>
    <clipPath id="clip-path-2">
      <rect id="長方形_12" data-name="長方形 12" width="70" height="57.49" fill="#c39830"/>
    </clipPath>
  </defs>
  <g id="グループ_468" data-name="グループ 468" transform="translate(20.841 -6372.111)">
    <g id="グループ_12" data-name="グループ 12" transform="translate(72.82 6416.702) rotate(46)">
      <g id="グループ_11" data-name="グループ 11" transform="translate(0 0)" clip-path="url(#clip-path)">
        <path id="パス_57" data-name="パス 57" d="M1.091,54.748a7.713,7.713,0,0,1,.533-.765A27.255,27.255,0,0,1,4.652,50.54a31.815,31.815,0,0,1,5.919-4.177c.206-.123.356-.212.482-.285a52.779,52.779,0,0,1,6.391-3.31c.61-.262,1.44-.6,2.693-1.192a33.21,33.21,0,0,0,3.728-1.93,25.5,25.5,0,0,0,3.767-2.9,9.626,9.626,0,0,0,2.457-2.69,8.555,8.555,0,0,0,.5-1.431,5.441,5.441,0,0,0,.167-.876,2.785,2.785,0,0,0-.046-1.055,2.324,2.324,0,0,0-.144-.383c-.5-1.068-1.264-2.467-1.264-2.467l-1.922-1.234a8.07,8.07,0,0,0-3.805.216A3.42,3.42,0,0,0,21.633,27.9a5.147,5.147,0,0,0-.712,2.8l1.291,2.1h0l.3.108a4.35,4.35,0,0,0,1.209.3.836.836,0,0,0,.2-.026.9.9,0,0,0,.254-.118c.245-.18-.635-1.4-.324-2.06,0,0,.155-.329,2.377-.758q.428.892.856,1.784a3.673,3.673,0,0,1-.858,1.864,14.13,14.13,0,0,1-1.539,1.2l-2.376.758A19.433,19.433,0,0,1,19.53,32.84a5.028,5.028,0,0,1-.846-2.939A4.985,4.985,0,0,1,19.8,27.231a6.677,6.677,0,0,1,3.077-2.4,7.888,7.888,0,0,1,2.623-.413,8.177,8.177,0,0,1,2.525.179,22.144,22.144,0,0,1,2.671,1.115c.394.9.7,1.645.916,2.159.428,1.042.945,2.348.945,2.348-.344,2.043-.191,2.594.038,2.682.642.245,2.611-2.868,2.772-3.124.075-.119.126-.2.217-.353,0,0,.84-1.39,1.79-3.3.173-.348.372-.754.372-.754l.127-.26c.572-1.177,1.479-3.131,1.479-3.132.788-1.7.843-1.789,1.128-2.413,1.651-3.611,1.89-5.047,3.06-7.393a34.618,34.618,0,0,1,1.77-3.088c.038-.057.11-.167.194-.293a22.162,22.162,0,0,1,4.96-5.5c.368-.285.653-.486.8-.587A16.243,16.243,0,0,1,54.838.816,11.451,11.451,0,0,1,56.273.373,6.311,6.311,0,0,1,60.7.445,4.724,4.724,0,0,1,63.164,3.9a4.991,4.991,0,0,1-.811,3.391,5.5,5.5,0,0,1-.475.636A6.128,6.128,0,0,1,60,9.386a5.268,5.268,0,0,1-.51.181s-.129.036-.259.066a4.213,4.213,0,0,1-3.1-.407c-.25-.166-1.44-.96-1.291-2.1A1.929,1.929,0,0,1,56.32,5.55a5.257,5.257,0,0,1,1.6.192l.366.075A6.254,6.254,0,0,1,58.221,7.3c-.045.279-.081.382-.019.445.276.282,2.271-.41,2.762-1.971a2.94,2.94,0,0,0-1.28-3.254c-.329-.188-.976-.443-4.841.954-3.625,1.31-3.9,1.84-3.886,2.147.019.473.721.515,1.389,1.509a5.211,5.211,0,0,1,.7,2c.376,1.711.564,2.566.155,3.432A3.479,3.479,0,0,1,51.347,14.2a3.554,3.554,0,0,1-3.042-.059l-.044-.031a2.687,2.687,0,0,1-.849-1.067c-.208-.443-.431-.924-.283-1.25.444-.982,3.9.2,4.308-.678,0,0,.149-.314-1.782-2.791a32.164,32.164,0,0,0-4.864,6.909c-.227.432-.425.835-1.718,3.726C40,25.828,40,26.048,39.379,27.221a29.8,29.8,0,0,1-5.929,7.46,46.4,46.4,0,0,1-10.14,7.547c-1.016.56-3.8,2.044-7.3,3.644a50.244,50.244,0,0,0-4.636,2.265A23.6,23.6,0,0,0,6.7,51.369a14.286,14.286,0,0,0-3.374,4.179A8.654,8.654,0,0,0,2.2,59.372a4.854,4.854,0,0,0,.689,3.156,20.307,20.307,0,0,0,1.981,1.608A7.41,7.41,0,0,0,6.78,65.3c.566.235.716.21.792.142.307-.273-.2-1.62-.64-1.627C6.245,63.8,6.278,67.023,5,67.38c-1.012.282-2.26-1.333-2.818-2.052A10.1,10.1,0,0,1,.348,61.009,8.613,8.613,0,0,1,.132,57.2a8.036,8.036,0,0,1,.958-2.454" transform="translate(0 -0.001)" fill="#c39830"/>
      </g>
    </g>
    <g id="グループ_14" data-name="グループ 14" transform="matrix(0.629, 0.777, -0.777, 0.629, 23.837, 6372.111)">
      <g id="グループ_13" data-name="グループ 13" transform="translate(0 0)" clip-path="url(#clip-path-2)">
        <path id="パス_58" data-name="パス 58" d="M68.268,44.58a7.42,7.42,0,0,0-.637-.663,26.711,26.711,0,0,0-3.478-2.89,31.408,31.408,0,0,0-6.407-3.164l-.514-.2A52.191,52.191,0,0,0,50.5,35.414c-.634-.161-1.494-.366-2.806-.747a32.953,32.953,0,0,1-3.928-1.31,25.268,25.268,0,0,1-4.115-2.245,9.489,9.489,0,0,1-2.805-2.245,8.356,8.356,0,0,1-.709-1.317,5.49,5.49,0,0,1-.3-.828,2.765,2.765,0,0,1-.116-1.035,2.179,2.179,0,0,1,.082-.394c.324-1.117.853-2.6.853-2.6l1.683-1.5a7.971,7.971,0,0,1,3.741-.375,3.375,3.375,0,0,1,2.058.748,5.077,5.077,0,0,1,1.122,2.618l-.935,2.245h0l-.272.15a4.268,4.268,0,0,1-1.131.482.9.9,0,0,1-.2,0A.862.862,0,0,1,42.458,27c-.267-.139.4-1.464,0-2.058,0,0-.2-.3-2.431-.374q-.282.935-.561,1.87a3.613,3.613,0,0,0,1.122,1.683,13.655,13.655,0,0,0,1.683.935l2.431.375a19.133,19.133,0,0,0,2.245-3.366,4.968,4.968,0,0,0,.375-2.993,4.938,4.938,0,0,0-1.5-2.431,6.6,6.6,0,0,0-3.366-1.87,7.777,7.777,0,0,0-2.619,0,8.1,8.1,0,0,0-2.431.56,21.932,21.932,0,0,0-2.431,1.5c-.245.94-.434,1.711-.561,2.245-.256,1.08-.56,2.431-.56,2.431.648,1.938.584,2.5.374,2.618-.588.338-2.984-2.394-3.18-2.618-.09-.1-.153-.179-.264-.311,0,0-1.032-1.225-2.251-2.94-.222-.311-.477-.677-.478-.677l-.163-.234c-.738-1.059-1.922-2.825-1.922-2.825-1.027-1.532-1.095-1.615-1.469-2.178-2.163-3.265-2.615-4.627-4.115-6.734a33.715,33.715,0,0,0-2.2-2.736l-.234-.256a21.9,21.9,0,0,0-5.676-4.6c-.4-.222-.71-.373-.87-.449A16.037,16.037,0,0,0,7.639.277,11.2,11.2,0,0,0,6.173.065a6.221,6.221,0,0,0-4.3.748A4.66,4.66,0,0,0,0,4.554a4.927,4.927,0,0,0,1.31,3.18,5.363,5.363,0,0,0,.56.546A6.049,6.049,0,0,0,3.928,9.417a5.091,5.091,0,0,0,.526.1s.131.017.262.025a4.154,4.154,0,0,0,2.953-.87c.218-.2,1.255-1.157.935-2.245a1.9,1.9,0,0,0-1.683-1.31,5.21,5.21,0,0,0-1.526.433l-.344.128a6.167,6.167,0,0,0,.287,1.44c.087.265.137.36.086.43-.226.318-2.275-.051-2.993-1.5A2.9,2.9,0,0,1,3.18,2.683c.292-.234.883-.581,4.863.188,3.732.72,4.081,1.194,4.116,1.5.053.463-.624.613-1.123,1.684a5.125,5.125,0,0,0-.374,2.057c-.1,1.725-.157,2.587.374,3.366a3.434,3.434,0,0,0,2.058,1.31,3.507,3.507,0,0,0,2.954-.524l.038-.038a2.647,2.647,0,0,0,.665-1.169c.133-.464.278-.966.083-1.262-.583-.889-3.767.788-4.3,0,0,0-.193-.283,1.31-2.992a31.738,31.738,0,0,1,5.8,5.985c.286.387.542.749,2.245,3.366,4.045,6.219,4.075,6.435,4.863,7.482a29.438,29.438,0,0,0,6.921,6.359,45.758,45.758,0,0,0,11.034,5.8c1.076.39,4.018,1.409,7.669,2.431a49.442,49.442,0,0,1,4.863,1.5,23.24,23.24,0,0,1,5.05,2.431A14.08,14.08,0,0,1,66.211,45.7a8.547,8.547,0,0,1,1.684,3.554,4.8,4.8,0,0,1-.188,3.18c-.14.279-.076.055-1.683,1.87a7.329,7.329,0,0,1-1.681,1.424c-.516.315-.666.314-.75.259-.341-.22-.057-1.609.375-1.683.668-.114,1.129,3.028,2.431,3.18,1.028.12,2-1.644,2.431-2.431a9.968,9.968,0,0,0,1.122-4.488,8.5,8.5,0,0,0-.374-3.741,7.936,7.936,0,0,0-1.31-2.245" transform="translate(0 -0.001)" fill="#c39830"/>
      </g>
    </g>
  </g>
</svg>
